<svg xmlns="http://www.w3.org/2000/svg" width="1200" height="680" viewBox="0 0 1200 680" role="img" aria-labelledby="title desc">
  <title id="title">SpoolmanDB Community data model</title>
  <desc id="desc">A white, black, and orange overview of how source JSON, schemas, and the compiler produce Spoolman-compatible public JSON.</desc>
  <defs>
    <linearGradient id="orangeGlow" x1="0" x2="1" y1="0" y2="1">
      <stop offset="0" stop-color="#ff8a1f"/>
      <stop offset="1" stop-color="#f05a00"/>
    </linearGradient>
    <filter id="softShadow" x="-20%" y="-20%" width="140%" height="140%">
      <feDropShadow dx="0" dy="16" stdDeviation="18" flood-color="#111111" flood-opacity="0.12"/>
    </filter>
    <marker id="arrow" markerWidth="12" markerHeight="12" refX="10" refY="6" orient="auto">
      <path d="M2 2 L10 6 L2 10 Z" fill="#f97316"/>
    </marker>
    <pattern id="grid" width="32" height="32" patternUnits="userSpaceOnUse">
      <path d="M32 0H0V32" fill="none" stroke="#111111" stroke-opacity="0.045" stroke-width="1"/>
    </pattern>
    <style>
      .bg { fill: #ffffff; }
      .grid { fill: url(#grid); }
      .title { font: 800 42px "Segoe UI", Inter, Arial, sans-serif; fill: #111111; letter-spacing: 0; }
      .subtitle { font: 500 17px "Segoe UI", Inter, Arial, sans-serif; fill: #595959; letter-spacing: 0; }
      .card { fill: #ffffff; stroke: #111111; stroke-opacity: 0.12; stroke-width: 1.2; }
      .card-strong { fill: #111111; stroke: #111111; stroke-width: 1.2; }
      .label { font: 700 18px "Segoe UI", Inter, Arial, sans-serif; fill: #111111; letter-spacing: 0; }
      .label-on-dark { font: 700 18px "Segoe UI", Inter, Arial, sans-serif; fill: #ffffff; letter-spacing: 0; }
      .small { font: 500 14px "Segoe UI", Inter, Arial, sans-serif; fill: #666666; letter-spacing: 0; }
      .small-on-dark { font: 500 14px "Segoe UI", Inter, Arial, sans-serif; fill: #d8d8d8; letter-spacing: 0; }
      .mono { font: 650 15px "Cascadia Mono", "SFMono-Regular", Consolas, monospace; fill: #111111; letter-spacing: 0; }
      .mono-muted { font: 600 13px "Cascadia Mono", "SFMono-Regular", Consolas, monospace; fill: #6a6a6a; letter-spacing: 0; }
      .mono-on-dark { font: 650 15px "Cascadia Mono", "SFMono-Regular", Consolas, monospace; fill: #ffffff; letter-spacing: 0; }
      .pill { fill: #fff4ea; stroke: #f97316; stroke-opacity: 0.32; }
      .pill-text { font: 700 13px "Segoe UI", Inter, Arial, sans-serif; fill: #bb4500; letter-spacing: 0; }
      .stat-number { font: 800 26px "Segoe UI", Inter, Arial, sans-serif; fill: #111111; letter-spacing: 0; }
      .stat-label { font: 600 13px "Segoe UI", Inter, Arial, sans-serif; fill: #666666; letter-spacing: 0; }
      .step { font: 800 13px "Segoe UI", Inter, Arial, sans-serif; fill: #ffffff; letter-spacing: 0; }
      .arrow-line { stroke: #f97316; stroke-width: 4; stroke-linecap: round; marker-end: url(#arrow); }
      .thin-line { stroke: #111111; stroke-opacity: 0.14; stroke-width: 1.2; }
      .orange { fill: url(#orangeGlow); }
      .orange-flat { fill: #f97316; }
    </style>
  </defs>

  <rect class="bg" width="1200" height="680" rx="28"/>
  <rect class="grid" width="1200" height="680" rx="28"/>

  <g transform="translate(58 48)">
    <rect x="0" y="0" width="96" height="96" rx="24" fill="#111111"/>
    <circle cx="48" cy="48" r="31" fill="none" stroke="#f97316" stroke-width="8"/>
    <circle cx="48" cy="48" r="13" fill="#ffffff"/>
    <path d="M22 48H74" stroke="#ffffff" stroke-width="7" stroke-linecap="round"/>
    <text x="124" y="38" class="title">SpoolmanDB Community</text>
    <text x="126" y="70" class="subtitle">Human-authored filament catalog compiled into Spoolman-compatible public JSON.</text>
  </g>

  <g transform="translate(890 58)">
    <rect class="pill" x="0" y="0" width="92" height="30" rx="15"/>
    <text class="pill-text" x="46" y="20" text-anchor="middle">SOURCE</text>
    <rect class="pill" x="104" y="0" width="90" height="30" rx="15"/>
    <text class="pill-text" x="149" y="20" text-anchor="middle">SCHEMA</text>
    <rect class="pill" x="206" y="0" width="94" height="30" rx="15"/>
    <text class="pill-text" x="253" y="20" text-anchor="middle">COMPILE</text>
  </g>

  <g filter="url(#softShadow)">
    <g transform="translate(58 188)">
      <rect class="card" width="244" height="194" rx="22"/>
      <rect x="22" y="22" width="48" height="48" rx="14" fill="#111111"/>
      <path d="M35 33H56L62 39V57H35Z" fill="#ffffff"/>
      <path d="M56 33V40H63" fill="none" stroke="#f97316" stroke-width="2"/>
      <text x="86" y="44" class="label">Human-edited</text>
      <text x="86" y="68" class="small">source database</text>
      <rect x="22" y="100" width="200" height="34" rx="10" fill="#fff4ea"/>
      <text x="36" y="122" class="mono">filaments/*.json</text>
      <rect x="22" y="144" width="200" height="34" rx="10" fill="#f7f7f7"/>
      <text x="36" y="166" class="mono">materials.json</text>
    </g>

    <g transform="translate(354 188)">
      <rect class="card" width="244" height="194" rx="22"/>
      <rect x="22" y="22" width="48" height="48" rx="14" fill="#f97316"/>
      <path d="M35 47L43 55L60 36" fill="none" stroke="#ffffff" stroke-width="6" stroke-linecap="round" stroke-linejoin="round"/>
      <text x="86" y="44" class="label">Validation</text>
      <text x="86" y="68" class="small">keeps source predictable</text>
      <rect x="22" y="100" width="200" height="34" rx="10" fill="#fff4ea"/>
      <text x="36" y="122" class="mono">filaments.schema</text>
      <rect x="22" y="144" width="200" height="34" rx="10" fill="#f7f7f7"/>
      <text x="36" y="166" class="mono">materials.schema</text>
    </g>

    <g transform="translate(650 188)">
      <rect class="card-strong" width="244" height="194" rx="22"/>
      <rect x="22" y="22" width="48" height="48" rx="14" fill="#ffffff"/>
      <path d="M34 47H58M46 35V59" stroke="#f97316" stroke-width="6" stroke-linecap="round"/>
      <text x="86" y="44" class="label-on-dark">Compiler</text>
      <text x="86" y="68" class="small-on-dark">expands combinations</text>
      <rect x="22" y="100" width="200" height="34" rx="10" fill="#242424"/>
      <text x="36" y="122" class="mono-on-dark">compile_filaments.py</text>
      <text x="34" y="164" class="small-on-dark">color x weight x diameter</text>
    </g>

    <g transform="translate(946 188)">
      <rect class="card" width="196" height="194" rx="22"/>
      <rect x="22" y="22" width="48" height="48" rx="14" fill="#111111"/>
      <ellipse cx="46" cy="36" rx="17" ry="8" fill="none" stroke="#f97316" stroke-width="4"/>
      <path d="M29 36V58C29 62 37 66 46 66C55 66 63 62 63 58V36" fill="none" stroke="#ffffff" stroke-width="4"/>
      <text x="86" y="44" class="label">Public JSON</text>
      <text x="86" y="68" class="small">served by Pages</text>
      <rect x="22" y="100" width="152" height="34" rx="10" fill="#fff4ea"/>
      <text x="36" y="122" class="mono">filaments.json</text>
      <rect x="22" y="144" width="152" height="34" rx="10" fill="#f7f7f7"/>
      <text x="36" y="166" class="mono">materials.json</text>
    </g>
  </g>

  <path class="arrow-line" d="M314 285H340"/>
  <path class="arrow-line" d="M610 285H636"/>
  <path class="arrow-line" d="M906 285H932"/>

  <g transform="translate(58 430)" filter="url(#softShadow)">
    <rect class="card" width="1084" height="160" rx="24"/>
    <text x="28" y="42" class="label">Expansion model</text>
    <text x="28" y="68" class="small">Source products compile into flat variants.</text>

    <g transform="translate(316 32)">
      <rect x="0" y="0" width="118" height="72" rx="18" fill="#111111"/>
      <text x="59" y="31" class="mono-on-dark" text-anchor="middle">1 product</text>
      <text x="59" y="52" class="small-on-dark" text-anchor="middle">name + material</text>
    </g>
    <text x="462" y="78" class="stat-number" text-anchor="middle">x</text>
    <g transform="translate(488 32)">
      <rect x="0" y="0" width="118" height="72" rx="18" fill="#fff4ea" stroke="#f97316" stroke-opacity="0.45"/>
      <text x="59" y="31" class="mono" text-anchor="middle">weights</text>
      <text x="59" y="52" class="small" text-anchor="middle">spool options</text>
    </g>
    <text x="634" y="78" class="stat-number" text-anchor="middle">x</text>
    <g transform="translate(660 32)">
      <rect x="0" y="0" width="118" height="72" rx="18" fill="#ffffff" stroke="#111111" stroke-opacity="0.14"/>
      <text x="59" y="31" class="mono" text-anchor="middle">diameters</text>
      <text x="59" y="52" class="small" text-anchor="middle">1.75 / 2.85</text>
    </g>
    <text x="806" y="78" class="stat-number" text-anchor="middle">x</text>
    <g transform="translate(832 32)">
      <rect x="0" y="0" width="118" height="72" rx="18" fill="#fff4ea" stroke="#f97316" stroke-opacity="0.45"/>
      <text x="59" y="31" class="mono" text-anchor="middle">colors</text>
      <text x="59" y="52" class="small" text-anchor="middle">hex / hexes</text>
    </g>
    <path d="M970 68H1018" class="arrow-line"/>
    <g transform="translate(1032 32)">
      <rect x="0" y="0" width="28" height="72" rx="14" fill="#f97316"/>
    </g>

    <g transform="translate(32 100)">
      <rect x="0" y="0" width="240" height="36" rx="18" fill="#111111"/>
      <text x="120" y="24" class="step" text-anchor="middle">Spoolman-compatible flat output</text>
    </g>
    <text x="316" y="124" class="mono-muted">Every compiled row keeps the stable public contract used by Spoolman.</text>
  </g>

  <g transform="translate(58 614)">
    <g>
      <text x="0" y="0" class="stat-number">460</text>
      <text x="0" y="24" class="stat-label">manufacturer files</text>
    </g>
    <g transform="translate(252 0)">
      <text x="0" y="0" class="stat-number">4,789</text>
      <text x="0" y="24" class="stat-label">source products</text>
    </g>
    <g transform="translate(504 0)">
      <text x="0" y="0" class="stat-number">29,639</text>
      <text x="0" y="24" class="stat-label">color entries</text>
    </g>
    <g transform="translate(756 0)">
      <text x="0" y="0" class="stat-number">51,596</text>
      <text x="0" y="24" class="stat-label">compiled variants</text>
    </g>
    <rect x="1004" y="-28" width="80" height="42" rx="21" fill="#111111"/>
    <text x="1044" y="-2" class="step" text-anchor="middle">JSON</text>
  </g>
</svg>
