<svg xmlns="http://www.w3.org/2000/svg" width="1200" height="1440" viewBox="0 0 1200 1440" role="img" aria-labelledby="title desc">
  <title id="title">SpoolmanDB Community JSON schema map</title>
  <desc id="desc">A dark white, black, and orange visual map of the JSON Schema rules used by SpoolmanDB Community.</desc>
  <defs>
    <filter id="softShadow" x="-20%" y="-20%" width="140%" height="140%">
      <feDropShadow dx="0" dy="16" stdDeviation="20" flood-color="#000000" flood-opacity="0.42"/>
    </filter>
    <marker id="arrow" markerWidth="12" markerHeight="12" refX="10" refY="6" orient="auto">
      <path d="M2 2 L10 6 L2 10 Z" fill="#f97316"/>
    </marker>
    <pattern id="grid" width="32" height="32" patternUnits="userSpaceOnUse">
      <path d="M32 0H0V32" fill="none" stroke="#ffffff" stroke-opacity="0.055" stroke-width="1"/>
    </pattern>
    <style>
      .bg { fill: #070707; }
      .grid { fill: url(#grid); }
      .title { font: 800 42px "Segoe UI", Inter, Arial, sans-serif; fill: #ffffff; letter-spacing: 0; }
      .subtitle { font: 500 17px "Segoe UI", Inter, Arial, sans-serif; fill: #b7b7b7; letter-spacing: 0; }
      .card { fill: #141414; stroke: #ffffff; stroke-opacity: 0.12; stroke-width: 1.2; }
      .card-light { fill: #ffffff; stroke: #ffffff; stroke-width: 1.2; }
      .section { font: 800 20px "Segoe UI", Inter, Arial, sans-serif; fill: #ffffff; letter-spacing: 0; }
      .section-light { font: 800 20px "Segoe UI", Inter, Arial, sans-serif; fill: #111111; letter-spacing: 0; }
      .note { font: 500 14px "Segoe UI", Inter, Arial, sans-serif; fill: #b7b7b7; letter-spacing: 0; }
      .note-light { font: 500 14px "Segoe UI", Inter, Arial, sans-serif; fill: #4e4e4e; letter-spacing: 0; }
      .mono { font: 650 15px "Cascadia Mono", "SFMono-Regular", Consolas, monospace; fill: #ffffff; letter-spacing: 0; }
      .mono-small { font: 600 13px "Cascadia Mono", "SFMono-Regular", Consolas, monospace; fill: #b7b7b7; letter-spacing: 0; }
      .mono-light { font: 650 15px "Cascadia Mono", "SFMono-Regular", Consolas, monospace; fill: #111111; letter-spacing: 0; }
      .mono-small-light { font: 600 13px "Cascadia Mono", "SFMono-Regular", Consolas, monospace; fill: #4e4e4e; letter-spacing: 0; }
      .badge { fill: #261207; stroke: #f97316; stroke-opacity: 0.5; }
      .badge-light { fill: #ffffff; stroke: #ffffff; }
      .badge-text { font: 800 12px "Segoe UI", Inter, Arial, sans-serif; fill: #ffb076; letter-spacing: 0; }
      .badge-text-light { font: 800 12px "Segoe UI", Inter, Arial, sans-serif; fill: #111111; letter-spacing: 0; }
      .row { fill: #222222; }
      .row-orange { fill: #261207; }
      .dot { fill: #f97316; }
      .arrow-line { stroke: #f97316; stroke-width: 4; stroke-linecap: round; marker-end: url(#arrow); }
    </style>
  </defs>

  <rect class="bg" width="1200" height="1440" rx="28"/>
  <rect class="grid" width="1200" height="1440" rx="28"/>

  <g transform="translate(58 48)">
    <rect x="0" y="0" width="96" height="96" rx="24" fill="#ffffff"/>
    <path d="M30 31H58L68 41V70H30Z" fill="#111111"/>
    <path d="M58 31V42H69" fill="none" stroke="#f97316" stroke-width="4" stroke-linecap="round" stroke-linejoin="round"/>
    <text x="44" y="60" class="mono-light">{ }</text>
    <text x="124" y="38" class="title">JSON Schema Map</text>
    <text x="126" y="70" class="subtitle">Required fields, types, array rules, enums, oneOf branches, and patterns.</text>
  </g>

  <g transform="translate(904 58)">
    <rect class="badge" x="0" y="0" width="92" height="30" rx="15"/>
    <text class="badge-text" x="46" y="20" text-anchor="middle">SCHEMA</text>
    <rect class="badge" x="108" y="0" width="94" height="30" rx="15"/>
    <text class="badge-text" x="155" y="20" text-anchor="middle">RULES</text>
  </g>

  <g filter="url(#softShadow)">
    <g transform="translate(58 170)">
      <rect class="card" width="1084" height="128" rx="22"/>
      <rect x="0" y="0" width="8" height="128" rx="4" fill="#f97316"/>
      <rect class="badge" x="28" y="24" width="132" height="28" rx="14"/>
      <text x="94" y="43" class="badge-text" text-anchor="middle">filaments.schema</text>
      <text x="184" y="44" class="section">Manufacturer Source Schema</text>
      <text x="184" y="69" class="note">type=object; required: manufacturer, filaments.</text>
      <circle class="dot" cx="44" cy="96" r="5"/>
      <text x="58" y="101" class="mono">manufacturer</text>
      <text x="182" y="101" class="mono-small">string</text>
      <circle class="dot" cx="330" cy="96" r="5"/>
      <text x="344" y="101" class="mono">filaments[]</text>
      <text x="462" y="101" class="mono-small">array; minItems=1; uniqueItems=true; items=Filament Product</text>
    </g>

    <g transform="translate(58 338)">
      <rect class="card-light" width="1084" height="248" rx="22"/>
      <rect x="0" y="0" width="8" height="248" rx="4" fill="#f97316"/>
      <rect class="badge" x="28" y="24" width="136" height="28" rx="14"/>
      <text x="96" y="43" class="badge-text" text-anchor="middle">source object</text>
      <text x="188" y="44" class="section-light">Filament Product Schema</text>
      <text x="188" y="69" class="note-light">type=object; required: name, density, material, weights, diameters, colors.</text>

      <g transform="translate(28 96)">
        <rect x="0" y="0" width="150" height="36" rx="10" fill="#f2f2f2"/>
        <circle class="dot" cx="18" cy="18" r="5"/>
        <text x="32" y="23" class="mono-light">name:string</text>
        <rect x="164" y="0" width="150" height="36" rx="10" fill="#f2f2f2"/>
        <circle class="dot" cx="182" cy="18" r="5"/>
        <text x="196" y="23" class="mono-light">material:regex</text>
        <rect x="328" y="0" width="150" height="36" rx="10" fill="#f2f2f2"/>
        <circle class="dot" cx="346" cy="18" r="5"/>
        <text x="360" y="23" class="mono-light">density:&gt;0</text>
        <rect x="492" y="0" width="150" height="36" rx="10" fill="#f2f2f2"/>
        <circle class="dot" cx="510" cy="18" r="5"/>
        <text x="524" y="23" class="mono-light">weights[]</text>
        <rect x="656" y="0" width="150" height="36" rx="10" fill="#f2f2f2"/>
        <circle class="dot" cx="674" cy="18" r="5"/>
        <text x="688" y="23" class="mono-light">diameters[]</text>
        <rect x="820" y="0" width="150" height="36" rx="10" fill="#f2f2f2"/>
        <circle class="dot" cx="838" cy="18" r="5"/>
        <text x="852" y="23" class="mono-light">colors[]</text>
      </g>

      <g transform="translate(28 154)">
        <rect x="0" y="0" width="1028" height="64" rx="14" fill="#f2f2f2"/>
        <text x="22" y="27" class="mono-small-light">rules: weights/colors minItems=1 uniqueItems=true; diameters items number &gt; 0</text>
        <text x="22" y="50" class="mono-small-light">optional: integer temps; temp_range=[int,int]; fill/finish/direction/pattern enums; booleans; urls format=uri</text>
      </g>
    </g>

    <g transform="translate(58 626)">
      <rect class="card" width="340" height="160" rx="22"/>
      <rect x="0" y="0" width="8" height="160" rx="4" fill="#f97316"/>
      <text x="28" y="40" class="section">Weight Schema</text>
      <text x="28" y="65" class="note">type=object; required: weight.</text>
      <circle class="dot" cx="34" cy="100" r="5"/>
      <text x="48" y="105" class="mono">weight</text>
      <text x="138" y="105" class="mono-small">number &gt;= 0</text>
      <text x="48" y="130" class="mono-small">? spool_weight number &gt;=0</text>
      <text x="48" y="152" class="mono-small">? spool_type enum; ? is_refill bool</text>
    </g>

    <g transform="translate(430 626)">
      <rect class="card" width="340" height="160" rx="22"/>
      <rect x="0" y="0" width="8" height="160" rx="4" fill="#f97316"/>
      <text x="28" y="40" class="section">Diameter Schema</text>
      <text x="28" y="65" class="note">array items: number; exclusiveMinimum=0.</text>
      <rect x="28" y="92" width="220" height="42" rx="12" class="row-orange"/>
      <circle class="dot" cx="48" cy="113" r="5"/>
      <text x="64" y="118" class="mono">number[]</text>
      <text x="160" y="118" class="mono-small">&gt; 0; uniqueItems</text>
    </g>

    <g transform="translate(802 626)">
      <rect class="card" width="340" height="160" rx="22"/>
      <rect x="0" y="0" width="8" height="160" rx="4" fill="#f97316"/>
      <text x="28" y="40" class="section">Materials Schema</text>
      <text x="28" y="65" class="note">materials.schema.json array items.</text>
      <circle class="dot" cx="34" cy="100" r="5"/>
      <text x="48" y="105" class="mono">material:string</text>
      <circle class="dot" cx="34" cy="126" r="5"/>
      <text x="48" y="131" class="mono">density:&gt;0</text>
      <text x="48" y="153" class="mono-small">? extruder_temp / bed_temp integer</text>
    </g>

    <g transform="translate(58 826)">
      <rect class="card" width="1084" height="222" rx="22"/>
      <rect x="0" y="0" width="8" height="222" rx="4" fill="#f97316"/>
      <text x="28" y="42" class="section">Color Variant Schema</text>
      <text x="28" y="67" class="note">type=object; oneOf requires name+hex OR name+hexes.</text>

      <g transform="translate(28 96)">
        <rect x="0" y="0" width="158" height="36" rx="10" class="row-orange"/>
        <circle class="dot" cx="18" cy="18" r="5"/>
        <text x="32" y="23" class="mono">name</text>
        <rect x="180" y="0" width="252" height="36" rx="10" class="row-orange"/>
        <circle class="dot" cx="198" cy="18" r="5"/>
        <text x="212" y="23" class="mono">hex</text>
        <text x="260" y="23" class="mono-small">OR</text>
        <text x="296" y="23" class="mono">hexes[]</text>
        <rect x="454" y="0" width="574" height="36" rx="10" class="row"/>
        <text x="474" y="23" class="mono-small">hex pattern=6/8 hex; hexes minItems=2 uniqueItems=true</text>
      </g>
      <g transform="translate(28 150)">
        <rect x="0" y="0" width="318" height="36" rx="10" class="row"/>
        <text x="20" y="23" class="mono-small">? codes[] strings minLength=1</text>
        <rect x="338" y="0" width="318" height="36" rx="10" class="row"/>
        <text x="358" y="23" class="mono-small">? eans[] pattern ^[0-9]{8,14}$</text>
        <rect x="676" y="0" width="352" height="36" rx="10" class="row"/>
        <text x="696" y="23" class="mono-small">? eans_refill[] same pattern</text>
      </g>
    </g>

    <g transform="translate(58 1088)">
      <rect class="card-light" width="1084" height="246" rx="22"/>
      <rect x="0" y="0" width="8" height="246" rx="4" fill="#f97316"/>
      <rect class="badge" x="28" y="24" width="122" height="28" rx="14"/>
      <text x="89" y="43" class="badge-text" text-anchor="middle">filaments.json</text>
      <text x="174" y="44" class="section-light">Generated Public Contract</text>
      <text x="174" y="69" class="note-light">Compiler output, not the source schema. Parsed by Spoolman's external DB model.</text>
      <g transform="translate(28 98)">
        <rect x="0" y="0" width="1028" height="116" rx="14" fill="#f2f2f2"/>
        <text x="22" y="28" class="mono-small-light">required contract: id, manufacturer, name, material, density, weight, spool_type, is_refill, diameter</text>
        <text x="22" y="54" class="mono-small-light">expanded fields: spool_weight, color_hex/color_hexes, temps, finish, pattern, booleans</text>
        <text x="22" y="80" class="mono-small-light">community metadata: codes, eans, eans_refill, is_refill; retained here, ignored by current Spoolman</text>
      </g>
    </g>
  </g>

  <path class="arrow-line" d="M600 306V328"/>
  <path class="arrow-line" d="M600 594V616"/>
  <path class="arrow-line" d="M600 794V816"/>
  <path class="arrow-line" d="M600 1056V1078"/>

  <g transform="translate(58 1378)">
    <rect x="0" y="-24" width="92" height="34" rx="17" fill="#ffffff"/>
    <text x="46" y="-2" class="badge-text-light" text-anchor="middle">legend</text>
    <circle class="dot" cx="126" cy="-7" r="5"/>
    <text x="140" y="-2" class="mono-small">required</text>
    <text x="252" y="-2" class="mono-small">? optional</text>
    <text x="374" y="-2" class="mono-small">[] array</text>
    <text x="478" y="-2" class="mono-small">rules come from filaments.schema.json and materials.schema.json</text>
  </g>
</svg>
